<svg width="24" height="24" viewBox="0 0 24 24" fill="none" xmlns="http://www.w3.org/2000/svg">
<path d="M9 3C9 2.44772 9.44772 2 10 2H14C14.5523 2 15 2.44772 15 3V4H20C20.5523 4 21 4.44772 21 5C21 5.55228 20.5523 6 20 6H4C3.44772 6 3 5.55228 3 5C3 4.44772 3.44772 4 4 4H9V3Z" fill="white"/>
<path d="M6 8C6.55228 8 7 8.44772 7 9V19C7 19.5523 7.44772 20 8 20H16C16.5523 20 17 19.5523 17 19V9C17 8.44772 17.4477 8 18 8C18.5523 8 19 8.44772 19 9V19C19 20.6569 17.6569 22 16 22H8C6.34315 22 5 20.6569 5 19V9C5 8.44772 5.44772 8 6 8Z" fill="white"/>
<path d="M9 11C9 10.4477 9.44772 10 10 10C10.5523 10 11 10.4477 11 11V17C11 17.5523 10.5523 18 10 18C9.44772 18 9 17.5523 9 17V11Z" fill="white"/>
<path d="M14 10C13.4477 10 13 10.4477 13 11V17C13 17.5523 13.4477 18 14 18C14.5523 18 15 17.5523 15 17V11C15 10.4477 14.5523 10 14 10Z" fill="white"/>
</svg>
